<?xml version="1.0" encoding="UTF-8"?>
<!DOCTYPE svg PUBLIC "-//W3C//DTD SVG 1.1//EN" "http://www.w3.org/Graphics/SVG/1.1/DTD/svg11.dtd">
<!-- Creator: CorelDRAW 2019 (64-Bit) -->
<svg xmlns="http://www.w3.org/2000/svg" xml:space="preserve" width="12.7mm" height="10.7933mm" version="1.1" style="shape-rendering:geometricPrecision; text-rendering:geometricPrecision; image-rendering:optimizeQuality; fill-rule:evenodd; clip-rule:evenodd"
viewBox="0 0 482.76 410.28"
 xmlns:xlink="http://www.w3.org/1999/xlink">
 <defs>
  <style type="text/css">
   <![CDATA[
    .fil1 {fill:#FEFEFE;fill-rule:nonzero}
    .fil2 {fill:#FEFEFE;fill-rule:nonzero}
    .fil0 {fill:#1D1D1E;fill-rule:nonzero}
   ]]>
  </style>
 </defs>
 <g id="Слой_x0020_1">
  <metadata id="CorelCorpID_0Corel-Layer"/>
  <polygon class="fil0" points="-0,410.28 482.76,410.28 482.76,0 -0,0 "/>
  <path class="fil1" d="M426.38 190.78c2.94,0 5.31,2.39 5.31,5.32l0 115.14 32.6 0c4.47,0 8.08,-3.61 8.08,-8.08l0 -194.3c0,-4.46 -3.61,-8.08 -8.08,-8.08l-44.45 0c-4.46,0 -8.08,3.62 -8.08,8.08l0 81.93 14.62 0z"/>
  <path class="fil1" d="M359.51 190.78c2.93,0 5.29,2.39 5.29,5.32l0 115.14 27.03 0 0 -115.14c0,-2.93 2.38,-5.32 5.31,-5.32l8.32 0 0 -81.93c0,-4.46 -3.61,-8.08 -8.08,-8.08l-44.44 0c-4.47,0 -8.09,3.62 -8.09,8.08l0 81.93 14.64 0z"/>
  <path class="fil1" d="M286.06 311.23l38.88 0 0 -115.14c0,-2.93 2.39,-5.32 5.3,-5.32l8.35 0 0 -81.93c0,-4.46 -3.61,-8.08 -8.08,-8.08l-44.45 0c-4.47,0 -8.08,3.62 -8.08,8.08l0 194.31c0,4.47 3.61,8.08 8.08,8.08z"/>
  <path class="fil1" d="M158.81 190.78c2.94,0 5.31,2.39 5.31,5.32l0 115.14 20.73 0 0 -115.14c0,-2.93 2.39,-5.32 5.32,-5.32l14.63 0 0 -81.93c0,-4.46 -3.62,-8.08 -8.08,-8.08l-44.46 0c-4.44,0 -8.07,3.62 -8.07,8.08l0 81.93 14.62 0z"/>
  <path class="fil1" d="M18.48 311.23l38.88 0 0 -115.14c0,-2.93 2.39,-5.32 5.33,-5.32l8.32 0 0 -81.93c0,-4.46 -3.61,-8.08 -8.08,-8.08l-44.45 0c-4.46,0 -8.07,3.62 -8.07,8.08l0 194.31c0,4.47 3.62,8.08 8.07,8.08z"/>
  <path class="fil1" d="M91.92 190.78c2.94,0 5.33,2.39 5.33,5.32l0 115.14 27.01 0 0 -115.14c0,-2.93 2.38,-5.32 5.32,-5.32l8.34 0 0 -81.93c0,-4.46 -3.62,-8.08 -8.08,-8.08l-44.44 0c-4.46,0 -8.08,3.62 -8.08,8.08l0 81.93 14.62 0z"/>
  <path class="fil1" d="M219.42 190.78c2.94,0 5.33,2.39 5.33,5.32l0 115.14 38.86 0c4.47,0 8.08,-3.61 8.08,-8.08l0 -194.3c0,-4.46 -3.61,-8.08 -8.08,-8.08l-44.44 0c-4.47,0 -8.08,3.62 -8.08,8.08l0 81.93 8.32 0z"/>
  <path class="fil2" d="M44.08 18.45c-19.11,0 -33.67,14.09 -33.67,33.31 0,19.22 14.57,33.67 33.67,33.67 11.94,0 22.33,-5.25 28.42,-15.28 0.48,-0.6 0.36,-1.31 -0.24,-1.91l-7.52 -5.97c-0.71,-0.6 -1.31,-0.6 -1.91,0 -4.9,7.17 -10.63,10.03 -18.75,10.03 -11.82,0 -19.82,-8.72 -19.82,-20.54 0,-11.82 7.88,-20.18 19.82,-20.18 8.12,0 13.49,2.98 18.39,9.67 0.48,0.6 1.43,1.08 2.27,0.24l7.52 -5.73c0.6,-0.48 0.72,-1.07 0.24,-1.91 -5.73,-9.79 -17.19,-15.4 -28.42,-15.4zm41.8 0.95c-0.84,0 -1.67,0.71 -1.67,1.67l0 61.73c0,1.08 0.6,1.67 1.67,1.67l49.31 0c1.08,0 1.67,-0.6 1.67,-1.67l0 -9.67c0,-1.08 -0.6,-1.67 -1.67,-1.67l-37.13 0 0 -14.09 31.76 0c1.07,0 1.67,-0.6 1.67,-1.67l0 -9.55c0,-1.07 -0.6,-1.67 -1.67,-1.67l-31.76 0 0 -12.18 36.18 0c1.08,0 1.67,-0.6 1.67,-1.67l0 -9.55c0,-1.08 -0.6,-1.67 -1.67,-1.67l-48.36 0zm65.8 0c-1.08,0 -1.67,0.6 -1.67,1.67l0 61.73c0,1.08 0.6,1.67 1.67,1.67l49.31 0c1.08,0 1.67,-0.6 1.67,-1.67l0 -9.79c0,-1.07 -0.6,-1.67 -1.67,-1.67l-37.13 0 0 -50.27c0,-1.08 -0.6,-1.67 -1.67,-1.67l-10.51 0zm64.6 0c-0.84,0 -1.67,0.71 -1.67,1.67l0 61.73c0,1.08 0.6,1.67 1.67,1.67l49.31 0c1.08,0 1.67,-0.6 1.67,-1.67l0 -9.67c0,-1.08 -0.6,-1.67 -1.67,-1.67l-37.13 0 0 -14.09 31.76 0c1.07,0 1.67,-0.6 1.67,-1.67l0 -9.55c0,-1.07 -0.6,-1.67 -1.67,-1.67l-31.76 0 0 -12.18 36.18 0c1.08,0 1.67,-0.6 1.67,-1.67l0 -9.55c0,-1.08 -0.6,-1.67 -1.67,-1.67l-48.36 0zm89.56 -0.95c-15.64,0 -26.99,7.52 -26.99,19.34 0,13.49 10.63,18.27 26.63,19.58 12.06,1.08 16.6,3.11 16.6,7.76 0,4.42 -4.54,7.4 -14.57,7.4 -9.43,0 -15.65,-2.27 -22.21,-7.4 -0.84,-0.71 -1.67,-0.6 -2.39,0.36l-5.61 7.52c-0.71,0.96 -0.71,1.79 0.12,2.39 8.6,7.16 17.91,10.03 29.86,10.03 16.36,0 28.54,-7.52 28.54,-20.54 0,-13.61 -12.06,-19.22 -28.78,-20.78 -10.87,-1.07 -14.45,-2.98 -14.45,-6.8 0,-3.7 4.42,-5.97 12.54,-5.97 8.24,0 15.17,2.39 20.54,6.69 0.96,0.84 1.79,0.72 2.51,-0.12l5.97 -7.4c0.6,-0.84 0.48,-1.55 -0.36,-2.15 -7.64,-6.33 -17.43,-9.91 -27.94,-9.91zm38.81 0.95c-1.08,0 -1.67,0.6 -1.67,1.67l0 9.79c0,1.07 0.6,1.67 1.67,1.67l20.78 0 0 50.27c0,1.08 0.6,1.67 1.67,1.67l10.51 0c1.08,0 1.67,-0.6 1.67,-1.67l0 -50.27 20.78 0c1.07,0 1.67,-0.6 1.67,-1.67l0 -9.79c0,-1.08 -0.6,-1.67 -1.67,-1.67l-55.41 0zm113.32 63.41c0.48,1.08 1.32,1.67 2.51,1.67l11.34 0c1.08,0 1.67,-0.95 1.31,-1.91l-26.86 -62.21c-0.24,-0.6 -0.72,-0.95 -1.55,-0.95l-13.61 0c-0.84,0 -1.31,0.36 -1.55,0.95l-28.18 62.45c-0.36,1.08 0,1.67 1.19,1.67l11.82 0c0.96,0 1.67,-0.48 2.03,-1.43l4.54 -11.46 32.48 0 4.54 11.23zm-21.14 -50.51l1.31 0 10.51 26.75 -22.69 0 10.87 -26.75z"/>
  <path class="fil2" d="M19.98 332.1c0,-1.41 0.42,-2.46 1.25,-3.14 0.84,-0.68 2.01,-1.02 3.53,-1.02 0.94,0 1.81,0.12 2.59,0.35 0.79,0.24 1.31,0.41 1.57,0.51l0 56.94 -8.94 0 0 -53.64zm53.56 50.74c-0.42,0.26 -1.07,0.63 -1.96,1.09 -0.89,0.47 -2,0.92 -3.33,1.33 -1.33,0.42 -2.87,0.79 -4.63,1.1 -1.75,0.32 -3.67,0.47 -5.76,0.47 -2.93,0 -5.66,-0.44 -8.2,-1.33 -2.54,-0.89 -4.76,-2.21 -6.67,-3.96 -1.91,-1.75 -3.41,-3.9 -4.51,-6.43 -1.1,-2.54 -1.65,-5.45 -1.65,-8.74 0,-3.14 0.54,-6 1.61,-8.59 1.07,-2.59 2.56,-4.81 4.47,-6.67 1.91,-1.86 4.16,-3.3 6.75,-4.31 2.59,-1.02 5.42,-1.53 8.51,-1.53 2.72,0 5.12,0.35 7.21,1.06 2.09,0.71 3.86,1.65 5.3,2.82 1.44,1.18 2.52,2.55 3.25,4.12 0.73,1.57 1.1,3.24 1.1,5.02 0,1.83 -0.34,3.49 -1.02,4.98 -0.68,1.49 -1.88,2.77 -3.61,3.84 -1.73,1.07 -4.05,1.91 -6.98,2.51 -2.93,0.6 -6.64,0.9 -11.14,0.9 -1.05,0 -2.03,-0.01 -2.94,-0.04 -0.92,-0.03 -1.89,-0.06 -2.94,-0.12 0.42,2.67 1.71,4.82 3.88,6.47 2.17,1.65 5.27,2.47 9.29,2.47 1.36,0 2.61,-0.1 3.76,-0.31 1.15,-0.21 2.18,-0.47 3.1,-0.79 0.92,-0.31 1.7,-0.63 2.35,-0.94 0.65,-0.32 1.14,-0.55 1.45,-0.71l3.29 6.28zm-27.53 -18.59c1.21,0.05 2.35,0.08 3.45,0.08 1.1,0 2.2,0 3.3,0 2.87,0 5.2,-0.18 6.98,-0.55 1.78,-0.36 3.16,-0.84 4.15,-1.41 1,-0.58 1.65,-1.23 1.96,-1.96 0.32,-0.73 0.47,-1.49 0.47,-2.27 0,-1.99 -0.8,-3.48 -2.39,-4.47 -1.6,-1 -3.57,-1.49 -5.92,-1.49 -1.93,0 -3.63,0.34 -5.1,1.02 -1.46,0.68 -2.69,1.58 -3.69,2.71 -0.99,1.12 -1.76,2.42 -2.31,3.88 -0.55,1.46 -0.85,2.95 -0.9,4.47zm35.92 -24.86c0,-1.46 0.42,-2.52 1.25,-3.17 0.84,-0.65 1.98,-0.98 3.45,-0.98 0.94,0 1.82,0.12 2.63,0.35 0.81,0.24 1.35,0.4 1.61,0.51l0 10.27 11.37 0c1.73,0 2.94,0.35 3.65,1.06 0.7,0.71 1.06,1.74 1.06,3.1 0,0.89 -0.13,1.71 -0.39,2.47 -0.26,0.76 -0.47,1.3 -0.63,1.61l-15.06 0 0 17.49c0,1.36 0.18,2.47 0.55,3.33 0.36,0.86 0.87,1.55 1.53,2.08 0.65,0.52 1.41,0.89 2.28,1.09 0.86,0.21 1.76,0.32 2.7,0.32 1.52,0 2.93,-0.24 4.24,-0.71 1.3,-0.47 2.25,-0.91 2.82,-1.33l3.61 5.96c-0.42,0.31 -1,0.7 -1.76,1.17 -0.76,0.47 -1.68,0.92 -2.78,1.33 -1.1,0.42 -2.33,0.77 -3.69,1.06 -1.36,0.29 -2.85,0.43 -4.47,0.43 -4.6,0 -8.08,-1.19 -10.43,-3.57 -2.35,-2.38 -3.53,-5.5 -3.53,-9.37l0 -34.51zm34.04 -7.29c0,-1.36 0.42,-2.39 1.25,-3.1 0.84,-0.71 1.99,-1.06 3.45,-1.06 0.94,0 1.82,0.13 2.63,0.39 0.81,0.26 1.35,0.47 1.61,0.63l0 20.87 -8.94 0 0 -17.73zm21.8 43.84c0.36,0.26 1.02,0.6 1.96,1.02 0.94,0.42 2.1,0.85 3.49,1.3 1.38,0.44 2.96,0.82 4.74,1.14 1.78,0.31 3.71,0.47 5.8,0.47 2.72,0 4.94,-0.35 6.67,-1.06 1.72,-0.71 2.58,-1.92 2.58,-3.65 0,-1.46 -0.55,-2.58 -1.65,-3.33 -1.1,-0.76 -3.06,-1.3 -5.88,-1.61l-6.12 -0.71c-2.09,-0.21 -4.01,-0.59 -5.76,-1.14 -1.75,-0.55 -3.25,-1.29 -4.51,-2.24 -1.25,-0.94 -2.24,-2.11 -2.94,-3.49 -0.71,-1.39 -1.06,-3.04 -1.06,-4.98 0,-1.67 0.33,-3.25 0.98,-4.74 0.65,-1.49 1.69,-2.81 3.1,-3.96 1.41,-1.15 3.25,-2.05 5.53,-2.71 2.27,-0.65 5.03,-0.98 8.27,-0.98 5.44,0 9.66,0.6 12.67,1.8 3,1.21 4.51,2.77 4.51,4.71 0,0.63 -0.12,1.18 -0.35,1.65 -0.24,0.47 -0.5,0.89 -0.78,1.25 -0.29,0.36 -0.59,0.67 -0.9,0.9 -0.31,0.24 -0.55,0.38 -0.7,0.43 -0.21,-0.21 -0.67,-0.54 -1.37,-0.98 -0.71,-0.44 -1.66,-0.89 -2.86,-1.33 -1.21,-0.44 -2.64,-0.84 -4.31,-1.18 -1.67,-0.34 -3.61,-0.51 -5.8,-0.51 -6.06,0 -9.1,1.6 -9.1,4.79 0,1.36 0.57,2.39 1.73,3.1 1.15,0.7 2.8,1.19 4.94,1.45l8 1.02c4.34,0.57 7.71,1.76 10.12,3.57 2.4,1.81 3.61,4.46 3.61,7.96 0,3.92 -1.56,7.06 -4.67,9.41 -3.11,2.35 -7.59,3.53 -13.45,3.53 -2.82,0 -5.39,-0.21 -7.69,-0.63 -2.3,-0.42 -4.3,-0.9 -6,-1.45 -1.7,-0.55 -3.07,-1.08 -4.12,-1.61 -1.05,-0.52 -1.73,-0.92 -2.04,-1.17l3.37 -6.04zm60.78 -8.08c0,-3.66 0.52,-6.89 1.57,-9.69 1.05,-2.8 2.51,-5.15 4.39,-7.06 1.88,-1.91 4.16,-3.36 6.82,-4.35 2.67,-0.99 5.62,-1.49 8.86,-1.49 2.98,0 5.72,0.52 8.23,1.57 2.51,1.05 4.69,2.48 6.55,4.31 1.86,1.83 3.31,4.03 4.35,6.59 1.05,2.56 1.57,5.33 1.57,8.31 0,3.03 -0.51,5.82 -1.53,8.36 -1.02,2.54 -2.43,4.72 -4.23,6.55 -1.81,1.83 -3.92,3.26 -6.35,4.28 -2.43,1.02 -5.09,1.53 -7.96,1.53 -2.98,0 -5.62,-0.57 -7.92,-1.73 -2.3,-1.15 -4.11,-2.56 -5.41,-4.23l0 20.63 -8.94 0 0 -33.57zm21.02 10.98c1.78,0 3.41,-0.33 4.9,-0.98 1.49,-0.65 2.77,-1.55 3.84,-2.7 1.07,-1.15 1.9,-2.51 2.47,-4.08 0.57,-1.57 0.86,-3.27 0.86,-5.1 0,-1.78 -0.29,-3.44 -0.86,-4.98 -0.57,-1.54 -1.4,-2.88 -2.47,-4 -1.07,-1.12 -2.35,-2.01 -3.84,-2.66 -1.49,-0.65 -3.12,-0.98 -4.9,-0.98 -1.78,0 -3.41,0.32 -4.9,0.94 -1.49,0.63 -2.77,1.49 -3.84,2.58 -1.07,1.1 -1.91,2.42 -2.51,3.96 -0.6,1.54 -0.9,3.26 -0.9,5.14 0,1.83 0.3,3.53 0.9,5.1 0.6,1.57 1.43,2.93 2.47,4.08 1.05,1.15 2.31,2.05 3.8,2.7 1.49,0.65 3.15,0.98 4.98,0.98zm29.33 -46.74c0,-1.41 0.42,-2.46 1.25,-3.14 0.84,-0.68 2.01,-1.02 3.53,-1.02 0.94,0 1.81,0.12 2.59,0.35 0.79,0.24 1.31,0.41 1.57,0.51l0 56.94 -8.94 0 0 -53.64zm53.96 53.49c-0.52,0.1 -1.35,0.22 -2.47,0.35 -1.12,0.13 -2.44,0.26 -3.96,0.39 -1.51,0.13 -3.21,0.25 -5.1,0.35 -1.88,0.1 -3.84,0.16 -5.88,0.16 -4.08,0 -7.41,-0.35 -10,-1.06 -2.58,-0.7 -4.63,-1.65 -6.12,-2.82 -1.49,-1.18 -2.51,-2.54 -3.06,-4.08 -0.55,-1.54 -0.82,-3.12 -0.82,-4.75 0,-2.14 0.33,-4.03 0.98,-5.64 0.65,-1.62 1.73,-2.98 3.22,-4.08 1.49,-1.1 3.44,-1.92 5.84,-2.47 2.4,-0.55 5.33,-0.82 8.78,-0.82 1.98,0 3.87,0.06 5.64,0.19 1.78,0.13 3.11,0.25 4,0.35 0,-1.83 -0.3,-3.35 -0.9,-4.55 -0.6,-1.2 -1.43,-2.14 -2.47,-2.82 -1.05,-0.68 -2.3,-1.15 -3.76,-1.41 -1.46,-0.26 -3.09,-0.39 -4.86,-0.39 -2.98,0 -5.38,0.34 -7.18,1.02 -1.81,0.68 -3,1.25 -3.57,1.73 -0.32,-0.26 -0.75,-0.76 -1.29,-1.49 -0.55,-0.73 -0.82,-1.62 -0.82,-2.66 0,-0.73 0.2,-1.45 0.59,-2.16 0.39,-0.7 1.08,-1.33 2.08,-1.88 1,-0.55 2.33,-0.98 4,-1.29 1.67,-0.32 3.79,-0.47 6.35,-0.47 3.08,0 5.9,0.3 8.43,0.9 2.54,0.6 4.72,1.55 6.55,2.86 1.83,1.31 3.25,3.03 4.27,5.18 1.02,2.14 1.53,4.73 1.53,7.77l0 23.61zm-8.86 -17.41c-0.52,-0.1 -1.51,-0.26 -2.94,-0.47 -1.44,-0.21 -3.59,-0.32 -6.47,-0.32 -3.55,0 -6.14,0.54 -7.77,1.61 -1.62,1.07 -2.43,2.76 -2.43,5.06 0,0.94 0.17,1.8 0.51,2.59 0.34,0.78 0.93,1.45 1.76,2 0.84,0.55 1.97,0.97 3.41,1.25 1.44,0.29 3.23,0.43 5.37,0.43 2.41,0 4.31,-0.09 5.72,-0.27 1.41,-0.18 2.35,-0.33 2.82,-0.43l0 -11.45zm18.04 -17.65c0,-1.41 0.42,-2.46 1.25,-3.14 0.84,-0.68 1.98,-1.02 3.45,-1.02 0.94,0 1.82,0.12 2.63,0.35 0.81,0.23 1.35,0.4 1.61,0.51l0 20.94c0,3.09 0.82,5.54 2.47,7.37 1.65,1.83 4.19,2.74 7.64,2.74 3.19,0 5.7,-0.93 7.53,-2.78 1.83,-1.86 2.74,-4.59 2.74,-8.2l0 -16.78c0,-1.41 0.42,-2.46 1.25,-3.14 0.84,-0.68 1.99,-1.02 3.45,-1.02 0.94,0 1.82,0.12 2.63,0.35 0.81,0.23 1.35,0.4 1.61,0.51l0 34.35c0,3.71 -0.5,6.86 -1.49,9.45 -0.99,2.59 -2.41,4.72 -4.23,6.39 -1.83,1.67 -4.03,2.89 -6.59,3.65 -2.56,0.76 -5.41,1.14 -8.55,1.14 -2.14,0 -4.11,-0.12 -5.88,-0.35 -1.78,-0.24 -3.36,-0.51 -4.75,-0.82 -1.38,-0.31 -2.52,-0.61 -3.41,-0.9 -0.89,-0.29 -1.52,-0.51 -1.88,-0.67 0.42,-1.1 0.81,-2.21 1.17,-3.33 0.36,-1.13 0.73,-2.24 1.1,-3.33 0.36,0.16 0.94,0.36 1.73,0.63 0.78,0.26 1.73,0.51 2.82,0.75 1.09,0.24 2.34,0.43 3.73,0.59 1.38,0.16 2.86,0.24 4.43,0.24 2.04,0 3.87,-0.22 5.49,-0.67 1.62,-0.44 2.99,-1.22 4.12,-2.31 1.13,-1.1 1.98,-2.55 2.59,-4.36 0.6,-1.8 0.9,-4.06 0.9,-6.78 -1.05,1.52 -2.68,2.73 -4.9,3.65 -2.22,0.92 -4.66,1.37 -7.33,1.37 -2.51,0 -4.84,-0.35 -6.98,-1.06 -2.14,-0.71 -3.97,-1.73 -5.49,-3.06 -1.52,-1.33 -2.71,-2.99 -3.57,-4.98 -0.86,-1.99 -1.29,-4.26 -1.29,-6.82l0 -19.45zm99.05 -18.43c0,-1.41 0.4,-2.46 1.22,-3.14 0.81,-0.68 1.97,-1.02 3.49,-1.02 0.94,0 1.8,0.12 2.59,0.35 0.78,0.24 1.31,0.41 1.57,0.51l0 35.37c0,3.82 -0.54,7.14 -1.61,9.96 -1.07,2.82 -2.55,5.18 -4.43,7.06 -1.89,1.89 -4.11,3.3 -6.67,4.23 -2.56,0.94 -5.36,1.41 -8.39,1.41 -3.08,0 -5.92,-0.52 -8.51,-1.57 -2.59,-1.05 -4.82,-2.48 -6.71,-4.31 -1.88,-1.83 -3.36,-4.03 -4.43,-6.59 -1.07,-2.56 -1.61,-5.33 -1.61,-8.31 0,-3.03 0.51,-5.82 1.53,-8.35 1.02,-2.54 2.43,-4.73 4.23,-6.59 1.81,-1.86 3.92,-3.3 6.36,-4.31 2.43,-1.02 5.08,-1.53 7.96,-1.53 3.03,0 5.7,0.59 8,1.76 2.3,1.18 4.11,2.6 5.41,4.28l0 -19.22zm0 33.96c0,-1.78 -0.3,-3.45 -0.9,-5.02 -0.6,-1.57 -1.43,-2.93 -2.47,-4.08 -1.05,-1.15 -2.31,-2.05 -3.81,-2.71 -1.49,-0.65 -3.12,-0.98 -4.9,-0.98 -1.83,0 -3.48,0.33 -4.94,0.98 -1.46,0.65 -2.73,1.54 -3.81,2.67 -1.07,1.12 -1.9,2.47 -2.47,4.04 -0.57,1.57 -0.86,3.27 -0.86,5.1 0,1.83 0.29,3.52 0.86,5.06 0.57,1.54 1.4,2.88 2.47,4 1.07,1.13 2.34,2.01 3.81,2.67 1.46,0.65 3.11,0.98 4.94,0.98 1.78,0 3.41,-0.32 4.9,-0.94 1.49,-0.63 2.76,-1.49 3.81,-2.59 1.05,-1.1 1.87,-2.43 2.47,-4 0.6,-1.57 0.9,-3.29 0.9,-5.18zm16.16 -33.96c0,-1.41 0.42,-2.46 1.25,-3.14 0.84,-0.68 2.01,-1.02 3.53,-1.02 0.94,0 1.8,0.12 2.58,0.35 0.79,0.24 1.31,0.41 1.57,0.51l0 22.51c1.31,-1.68 3.11,-3.1 5.41,-4.28 2.3,-1.17 4.94,-1.76 7.92,-1.76 2.87,0 5.53,0.51 7.96,1.53 2.43,1.02 4.55,2.46 6.35,4.31 1.8,1.86 3.22,4.05 4.23,6.59 1.02,2.54 1.53,5.32 1.53,8.35 0,2.98 -0.52,5.75 -1.57,8.31 -1.05,2.56 -2.51,4.76 -4.39,6.59 -1.88,1.83 -4.12,3.27 -6.71,4.31 -2.59,1.05 -5.42,1.57 -8.51,1.57 -3.09,0 -5.92,-0.47 -8.51,-1.41 -2.59,-0.94 -4.82,-2.35 -6.71,-4.23 -1.88,-1.88 -3.35,-4.23 -4.39,-7.06 -1.05,-2.82 -1.57,-6.14 -1.57,-9.96l0 -32.08zm21.02 46.66c1.78,0 3.41,-0.33 4.9,-0.98 1.49,-0.65 2.77,-1.54 3.84,-2.67 1.07,-1.12 1.9,-2.46 2.47,-4 0.57,-1.54 0.86,-3.23 0.86,-5.06 0,-1.83 -0.29,-3.53 -0.86,-5.1 -0.57,-1.57 -1.4,-2.92 -2.47,-4.04 -1.07,-1.13 -2.35,-2.01 -3.84,-2.67 -1.49,-0.65 -3.12,-0.98 -4.9,-0.98 -1.83,0 -3.49,0.33 -4.98,0.98 -1.49,0.65 -2.76,1.55 -3.8,2.71 -1.05,1.15 -1.87,2.51 -2.47,4.08 -0.6,1.57 -0.9,3.24 -0.9,5.02 0,1.89 0.3,3.61 0.9,5.18 0.6,1.57 1.44,2.9 2.51,4 1.07,1.1 2.35,1.96 3.84,2.59 1.49,0.63 3.12,0.94 4.9,0.94z"/>
 </g>
</svg>
