<?xml version="1.0" encoding="UTF-8"?>
<!DOCTYPE svg PUBLIC "-//W3C//DTD SVG 1.1//EN" "http://www.w3.org/Graphics/SVG/1.1/DTD/svg11.dtd">
<!-- Creator: CorelDRAW 2019 (64-Bit) -->
<svg xmlns="http://www.w3.org/2000/svg" xml:space="preserve" width="12.1754mm" height="10.0958mm" version="1.1" style="shape-rendering:geometricPrecision; text-rendering:geometricPrecision; image-rendering:optimizeQuality; fill-rule:evenodd; clip-rule:evenodd"
viewBox="0 0 451.1 374.05"
 xmlns:xlink="http://www.w3.org/1999/xlink">
 <defs>
  <style type="text/css">
   <![CDATA[
    .fil0 {fill:#FEFEFE;fill-rule:nonzero}
    .fil1 {fill:#FEFEFE;fill-rule:nonzero}
   ]]>
  </style>
 </defs>
 <g id="Слой_x0020_1">
  <metadata id="CorelCorpID_0Corel-Layer"/>
  <path class="fil0" d="M405.44 167.97c2.87,0 5.18,2.33 5.18,5.18l0 112.22 31.77 0c4.35,0 7.87,-3.52 7.87,-7.87l0 -189.38c0,-4.34 -3.52,-7.87 -7.87,-7.87l-43.33 0c-4.34,0 -7.87,3.53 -7.87,7.87l0 79.85 14.25 0z"/>
  <path class="fil0" d="M340.25 167.97c2.85,0 5.16,2.33 5.16,5.18l0 112.22 26.35 0 0 -112.22c0,-2.85 2.32,-5.18 5.18,-5.18l8.11 0 0 -79.85c0,-4.34 -3.52,-7.87 -7.88,-7.87l-43.31 0c-4.35,0 -7.88,3.53 -7.88,7.87l0 79.85 14.27 0z"/>
  <path class="fil0" d="M268.67 285.37l37.89 0 0 -112.22c0,-2.86 2.33,-5.18 5.17,-5.18l8.14 0 0 -79.85c0,-4.34 -3.52,-7.87 -7.87,-7.87l-43.32 0c-4.36,0 -7.87,3.53 -7.87,7.87l0 189.38c0,4.36 3.52,7.87 7.87,7.87z"/>
  <path class="fil0" d="M144.65 167.97c2.87,0 5.18,2.33 5.18,5.18l0 112.22 20.2 0 0 -112.22c0,-2.85 2.33,-5.18 5.19,-5.18l14.26 0 0 -79.85c0,-4.34 -3.53,-7.87 -7.87,-7.87l-43.34 0c-4.33,0 -7.86,3.53 -7.86,7.87l0 79.85 14.25 0z"/>
  <path class="fil0" d="M7.87 285.37l37.89 0 0 -112.22c0,-2.86 2.33,-5.18 5.19,-5.18l8.11 0 0 -79.85c0,-4.34 -3.52,-7.87 -7.87,-7.87l-43.33 0c-4.34,0 -7.87,3.53 -7.87,7.87l0 189.38c0,4.36 3.53,7.87 7.87,7.87z"/>
  <path class="fil0" d="M79.45 167.97c2.86,0 5.19,2.33 5.19,5.18l0 112.22 26.32 0 0 -112.22c0,-2.85 2.32,-5.18 5.18,-5.18l8.13 0 0 -79.85c0,-4.34 -3.53,-7.87 -7.88,-7.87l-43.32 0c-4.35,0 -7.88,3.53 -7.88,7.87l0 79.85 14.25 0z"/>
  <path class="fil0" d="M203.71 167.97c2.86,0 5.19,2.33 5.19,5.18l0 112.22 37.88 0c4.35,0 7.87,-3.52 7.87,-7.87l0 -189.38c0,-4.34 -3.52,-7.87 -7.87,-7.87l-43.31 0c-4.36,0 -7.87,3.53 -7.87,7.87l0 79.85 8.11 0z"/>
  <path class="fil1" d="M32.82 0c-18.62,0 -32.82,13.73 -32.82,32.47 0,18.74 14.2,32.82 32.82,32.82 11.64,0 21.76,-5.12 27.7,-14.9 0.47,-0.58 0.35,-1.28 -0.23,-1.86l-7.33 -5.82c-0.7,-0.58 -1.28,-0.58 -1.86,0 -4.77,6.98 -10.36,9.78 -18.27,9.78 -11.52,0 -19.32,-8.5 -19.32,-20.02 0,-11.52 7.68,-19.67 19.32,-19.67 7.91,0 13.15,2.91 17.92,9.43 0.46,0.59 1.4,1.05 2.21,0.23l7.33 -5.59c0.59,-0.46 0.7,-1.04 0.23,-1.86 -5.59,-9.54 -16.76,-15.01 -27.7,-15.01zm40.74 0.93c-0.82,0 -1.63,0.7 -1.63,1.63l0 60.17c0,1.05 0.58,1.63 1.63,1.63l48.06 0c1.05,0 1.63,-0.58 1.63,-1.63l0 -9.43c0,-1.05 -0.58,-1.63 -1.63,-1.63l-36.19 0 0 -13.73 30.96 0c1.04,0 1.63,-0.58 1.63,-1.63l0 -9.31c0,-1.04 -0.58,-1.63 -1.63,-1.63l-30.96 0 0 -11.87 35.26 0c1.05,0 1.63,-0.59 1.63,-1.63l0 -9.31c0,-1.05 -0.58,-1.63 -1.63,-1.63l-47.13 0zm64.13 0c-1.05,0 -1.63,0.58 -1.63,1.63l0 60.17c0,1.05 0.58,1.63 1.63,1.63l48.06 0c1.05,0 1.63,-0.58 1.63,-1.63l0 -9.54c0,-1.04 -0.58,-1.63 -1.63,-1.63l-36.19 0 0 -49c0,-1.05 -0.58,-1.63 -1.63,-1.63l-10.24 0zm62.96 0c-0.82,0 -1.63,0.7 -1.63,1.63l0 60.17c0,1.05 0.58,1.63 1.63,1.63l48.06 0c1.05,0 1.63,-0.58 1.63,-1.63l0 -9.43c0,-1.05 -0.58,-1.63 -1.63,-1.63l-36.19 0 0 -13.73 30.96 0c1.04,0 1.63,-0.58 1.63,-1.63l0 -9.31c0,-1.04 -0.58,-1.63 -1.63,-1.63l-30.96 0 0 -11.87 35.26 0c1.05,0 1.63,-0.59 1.63,-1.63l0 -9.31c0,-1.05 -0.58,-1.63 -1.63,-1.63l-47.13 0zm87.29 -0.93c-15.25,0 -26.31,7.33 -26.31,18.85 0,13.15 10.36,17.81 25.96,19.08 11.75,1.05 16.18,3.03 16.18,7.57 0,4.31 -4.42,7.22 -14.2,7.22 -9.2,0 -15.25,-2.21 -21.65,-7.22 -0.82,-0.7 -1.63,-0.58 -2.33,0.35l-5.47 7.33c-0.7,0.93 -0.7,1.75 0.11,2.33 8.38,6.98 17.46,9.77 29.1,9.77 15.94,0 27.81,-7.33 27.81,-20.02 0,-13.27 -11.75,-18.74 -28.05,-20.25 -10.59,-1.04 -14.08,-2.91 -14.08,-6.63 0,-3.61 4.31,-5.82 12.22,-5.82 8.03,0 14.78,2.33 20.02,6.52 0.93,0.82 1.75,0.7 2.45,-0.11l5.82 -7.22c0.58,-0.82 0.46,-1.51 -0.35,-2.09 -7.45,-6.17 -16.99,-9.66 -27.23,-9.66zm37.82 0.93c-1.05,0 -1.63,0.58 -1.63,1.63l0 9.54c0,1.04 0.58,1.63 1.63,1.63l20.25 0 0 49c0,1.05 0.58,1.63 1.63,1.63l10.24 0c1.05,0 1.63,-0.58 1.63,-1.63l0 -49 20.25 0c1.04,0 1.63,-0.58 1.63,-1.63l0 -9.54c0,-1.05 -0.58,-1.63 -1.63,-1.63l-54 0zm110.45 61.8c0.47,1.05 1.28,1.63 2.45,1.63l11.06 0c1.05,0 1.63,-0.93 1.28,-1.86l-26.18 -60.64c-0.23,-0.58 -0.7,-0.93 -1.52,-0.93l-13.27 0c-0.82,0 -1.28,0.35 -1.51,0.93l-27.47 60.87c-0.35,1.05 0,1.63 1.16,1.63l11.52 0c0.93,0 1.63,-0.47 1.98,-1.4l4.42 -11.17 31.66 0 4.42 10.94zm-20.6 -49.23l1.28 0 10.24 26.07 -22.12 0 10.59 -26.07z"/>
  <path class="fil1" d="M9.33 305.71c0,-1.38 0.41,-2.4 1.22,-3.06 0.82,-0.66 1.96,-0.99 3.44,-0.99 0.92,0 1.76,0.11 2.52,0.34 0.77,0.23 1.27,0.4 1.53,0.5l0 55.5 -8.71 0 0 -52.28zm52.21 49.46c-0.41,0.25 -1.04,0.61 -1.91,1.07 -0.86,0.46 -1.95,0.89 -3.25,1.3 -1.3,0.41 -2.8,0.77 -4.51,1.07 -1.71,0.31 -3.58,0.46 -5.62,0.46 -2.86,0 -5.52,-0.43 -7.99,-1.3 -2.47,-0.87 -4.64,-2.15 -6.5,-3.86 -1.86,-1.71 -3.32,-3.8 -4.39,-6.27 -1.07,-2.47 -1.61,-5.31 -1.61,-8.52 0,-3.06 0.52,-5.85 1.57,-8.37 1.04,-2.52 2.5,-4.69 4.36,-6.5 1.86,-1.81 4.05,-3.21 6.58,-4.21 2.52,-0.99 5.29,-1.49 8.29,-1.49 2.65,0 4.99,0.34 7.03,1.03 2.04,0.69 3.76,1.61 5.16,2.75 1.4,1.15 2.46,2.49 3.17,4.01 0.72,1.53 1.07,3.16 1.07,4.89 0,1.78 -0.33,3.4 -0.99,4.85 -0.66,1.45 -1.83,2.7 -3.52,3.75 -1.68,1.04 -3.95,1.86 -6.8,2.45 -2.86,0.59 -6.47,0.88 -10.86,0.88 -1.02,0 -1.97,-0.01 -2.87,-0.04 -0.89,-0.03 -1.85,-0.06 -2.87,-0.11 0.41,2.6 1.67,4.7 3.79,6.31 2.12,1.61 5.14,2.41 9.06,2.41 1.32,0 2.55,-0.1 3.67,-0.3 1.12,-0.2 2.13,-0.46 3.02,-0.77 0.89,-0.3 1.66,-0.61 2.29,-0.92 0.64,-0.31 1.11,-0.54 1.42,-0.69l3.21 6.12zm-26.83 -18.12c1.17,0.05 2.29,0.07 3.36,0.07 1.07,0 2.14,0 3.21,0 2.8,0 5.07,-0.18 6.8,-0.53 1.73,-0.36 3.08,-0.82 4.05,-1.37 0.97,-0.56 1.61,-1.2 1.91,-1.91 0.31,-0.72 0.46,-1.45 0.46,-2.22 0,-1.94 -0.78,-3.39 -2.33,-4.36 -1.56,-0.97 -3.48,-1.45 -5.77,-1.45 -1.89,0 -3.54,0.33 -4.97,0.99 -1.43,0.66 -2.62,1.54 -3.59,2.64 -0.97,1.09 -1.72,2.36 -2.25,3.78 -0.54,1.43 -0.83,2.88 -0.88,4.36zm35.01 -24.23c0,-1.43 0.41,-2.46 1.22,-3.09 0.82,-0.64 1.93,-0.96 3.36,-0.96 0.92,0 1.77,0.11 2.56,0.34 0.79,0.23 1.31,0.39 1.57,0.5l0 10.01 11.08 0c1.68,0 2.87,0.34 3.56,1.03 0.69,0.69 1.03,1.7 1.03,3.02 0,0.87 -0.13,1.67 -0.38,2.41 -0.26,0.74 -0.46,1.26 -0.61,1.57l-14.68 0 0 17.05c0,1.33 0.18,2.41 0.53,3.25 0.36,0.84 0.85,1.52 1.49,2.03 0.64,0.51 1.38,0.86 2.22,1.07 0.84,0.21 1.72,0.31 2.63,0.31 1.48,0 2.86,-0.23 4.13,-0.69 1.27,-0.46 2.19,-0.89 2.75,-1.3l3.52 5.81c-0.41,0.3 -0.98,0.69 -1.72,1.14 -0.74,0.46 -1.64,0.89 -2.71,1.3 -1.07,0.41 -2.27,0.75 -3.59,1.03 -1.33,0.28 -2.78,0.42 -4.36,0.42 -4.48,0 -7.87,-1.16 -10.17,-3.48 -2.29,-2.32 -3.44,-5.36 -3.44,-9.13l0 -33.64zm33.17 -7.11c0,-1.33 0.41,-2.33 1.22,-3.02 0.82,-0.69 1.94,-1.03 3.36,-1.03 0.92,0 1.77,0.13 2.56,0.38 0.79,0.26 1.31,0.46 1.57,0.61l0 20.34 -8.71 0 0 -17.28zm21.25 42.73c0.36,0.26 0.99,0.59 1.91,0.99 0.92,0.41 2.05,0.83 3.4,1.26 1.35,0.43 2.89,0.8 4.62,1.11 1.73,0.3 3.62,0.46 5.66,0.46 2.65,0 4.82,-0.34 6.5,-1.03 1.68,-0.69 2.52,-1.87 2.52,-3.55 0,-1.43 -0.53,-2.51 -1.6,-3.25 -1.07,-0.74 -2.98,-1.26 -5.73,-1.57l-5.97 -0.69c-2.04,-0.2 -3.91,-0.57 -5.62,-1.11 -1.71,-0.53 -3.17,-1.26 -4.39,-2.18 -1.22,-0.92 -2.18,-2.05 -2.87,-3.4 -0.69,-1.35 -1.03,-2.97 -1.03,-4.85 0,-1.63 0.32,-3.17 0.96,-4.62 0.64,-1.45 1.65,-2.74 3.02,-3.86 1.38,-1.12 3.17,-2 5.39,-2.64 2.22,-0.64 4.91,-0.96 8.06,-0.96 5.3,0 9.42,0.59 12.35,1.76 2.93,1.17 4.39,2.7 4.39,4.59 0,0.61 -0.11,1.15 -0.34,1.61 -0.23,0.46 -0.49,0.86 -0.76,1.22 -0.28,0.36 -0.57,0.65 -0.88,0.88 -0.3,0.23 -0.53,0.37 -0.69,0.42 -0.2,-0.2 -0.65,-0.52 -1.34,-0.95 -0.69,-0.43 -1.62,-0.87 -2.79,-1.3 -1.17,-0.43 -2.57,-0.82 -4.21,-1.15 -1.63,-0.33 -3.52,-0.5 -5.66,-0.5 -5.91,0 -8.87,1.56 -8.87,4.66 0,1.32 0.56,2.33 1.68,3.02 1.12,0.69 2.73,1.16 4.82,1.41l7.8 1c4.23,0.56 7.52,1.72 9.86,3.48 2.34,1.76 3.52,4.35 3.52,7.76 0,3.82 -1.52,6.88 -4.55,9.17 -3.03,2.29 -7.4,3.44 -13.11,3.44 -2.75,0 -5.25,-0.2 -7.49,-0.61 -2.25,-0.41 -4.19,-0.88 -5.85,-1.42 -1.66,-0.53 -2.99,-1.06 -4.01,-1.57 -1.02,-0.51 -1.68,-0.89 -1.99,-1.14l3.29 -5.89zm59.24 -7.87c0,-3.57 0.51,-6.71 1.53,-9.44 1.02,-2.73 2.45,-5.02 4.28,-6.88 1.83,-1.86 4.05,-3.28 6.65,-4.24 2.6,-0.97 5.48,-1.45 8.64,-1.45 2.9,0 5.58,0.51 8.03,1.53 2.45,1.02 4.57,2.42 6.38,4.2 1.81,1.79 3.22,3.92 4.24,6.42 1.02,2.5 1.53,5.2 1.53,8.1 0,2.96 -0.5,5.67 -1.49,8.14 -0.99,2.47 -2.37,4.6 -4.13,6.38 -1.76,1.79 -3.82,3.18 -6.19,4.17 -2.37,0.99 -4.96,1.49 -7.76,1.49 -2.9,0 -5.48,-0.56 -7.72,-1.68 -2.24,-1.12 -4,-2.5 -5.28,-4.13l0 20.1 -8.71 0 0 -32.72zm20.48 10.7c1.73,0 3.33,-0.32 4.78,-0.96 1.45,-0.63 2.7,-1.52 3.75,-2.63 1.04,-1.12 1.85,-2.45 2.41,-3.98 0.56,-1.53 0.84,-3.19 0.84,-4.97 0,-1.73 -0.28,-3.35 -0.84,-4.85 -0.56,-1.5 -1.36,-2.8 -2.41,-3.9 -1.04,-1.09 -2.29,-1.96 -3.75,-2.6 -1.45,-0.64 -3.05,-0.96 -4.78,-0.96 -1.73,0 -3.32,0.31 -4.78,0.92 -1.45,0.61 -2.7,1.45 -3.75,2.52 -1.04,1.07 -1.86,2.36 -2.45,3.86 -0.59,1.5 -0.88,3.18 -0.88,5.01 0,1.78 0.3,3.44 0.88,4.97 0.59,1.53 1.39,2.85 2.41,3.98 1.02,1.12 2.25,2 3.7,2.63 1.45,0.64 3.07,0.96 4.85,0.96zm28.59 -45.56c0,-1.38 0.41,-2.4 1.22,-3.06 0.82,-0.66 1.96,-0.99 3.44,-0.99 0.92,0 1.76,0.11 2.52,0.34 0.77,0.23 1.27,0.4 1.53,0.5l0 55.5 -8.71 0 0 -52.28zm52.59 52.13c-0.51,0.1 -1.31,0.21 -2.41,0.34 -1.09,0.13 -2.38,0.25 -3.86,0.38 -1.47,0.13 -3.13,0.24 -4.97,0.34 -1.83,0.1 -3.75,0.15 -5.73,0.15 -3.98,0 -7.22,-0.34 -9.75,-1.03 -2.52,-0.69 -4.51,-1.6 -5.96,-2.75 -1.45,-1.15 -2.45,-2.47 -2.98,-3.98 -0.53,-1.5 -0.8,-3.05 -0.8,-4.63 0,-2.09 0.32,-3.92 0.96,-5.5 0.64,-1.58 1.68,-2.9 3.13,-3.98 1.45,-1.07 3.35,-1.87 5.69,-2.41 2.34,-0.53 5.2,-0.8 8.56,-0.8 1.93,0 3.77,0.06 5.5,0.19 1.73,0.13 3.03,0.24 3.9,0.34 0,-1.78 -0.29,-3.26 -0.88,-4.43 -0.59,-1.17 -1.39,-2.09 -2.41,-2.75 -1.02,-0.66 -2.24,-1.12 -3.67,-1.38 -1.43,-0.26 -3.01,-0.38 -4.74,-0.38 -2.9,0 -5.24,0.33 -7,0.99 -1.76,0.66 -2.92,1.22 -3.48,1.68 -0.31,-0.26 -0.73,-0.74 -1.26,-1.45 -0.54,-0.71 -0.8,-1.58 -0.8,-2.6 0,-0.72 0.19,-1.42 0.57,-2.1 0.38,-0.69 1.06,-1.3 2.02,-1.83 0.97,-0.53 2.27,-0.96 3.9,-1.26 1.63,-0.31 3.69,-0.46 6.19,-0.46 3,0 5.75,0.29 8.22,0.88 2.47,0.59 4.6,1.52 6.38,2.79 1.78,1.27 3.17,2.96 4.16,5.05 0.99,2.09 1.49,4.61 1.49,7.57l0 23.01zm-8.64 -16.97c-0.51,-0.1 -1.47,-0.25 -2.87,-0.46 -1.4,-0.2 -3.5,-0.31 -6.31,-0.31 -3.46,0 -5.99,0.52 -7.57,1.57 -1.58,1.04 -2.37,2.69 -2.37,4.93 0,0.92 0.17,1.76 0.5,2.52 0.33,0.76 0.9,1.41 1.72,1.95 0.82,0.53 1.92,0.94 3.33,1.22 1.4,0.28 3.15,0.42 5.24,0.42 2.35,0 4.21,-0.09 5.58,-0.27 1.38,-0.18 2.29,-0.32 2.75,-0.42l0 -11.16zm17.58 -17.2c0,-1.37 0.41,-2.39 1.22,-3.06 0.82,-0.66 1.93,-0.99 3.36,-0.99 0.92,0 1.77,0.11 2.56,0.34 0.79,0.23 1.31,0.39 1.57,0.5l0 20.41c0,3.01 0.8,5.4 2.41,7.19 1.6,1.78 4.09,2.68 7.45,2.68 3.11,0 5.55,-0.9 7.34,-2.71 1.78,-1.81 2.68,-4.47 2.68,-7.99l0 -16.36c0,-1.37 0.41,-2.39 1.22,-3.06 0.82,-0.66 1.94,-0.99 3.36,-0.99 0.92,0 1.77,0.11 2.56,0.34 0.79,0.23 1.31,0.39 1.57,0.5l0 33.48c0,3.62 -0.49,6.69 -1.45,9.21 -0.97,2.52 -2.35,4.6 -4.13,6.23 -1.78,1.63 -3.92,2.82 -6.42,3.56 -2.5,0.74 -5.28,1.11 -8.33,1.11 -2.09,0 -4,-0.11 -5.73,-0.34 -1.73,-0.23 -3.28,-0.5 -4.63,-0.8 -1.35,-0.3 -2.46,-0.6 -3.32,-0.88 -0.87,-0.28 -1.48,-0.5 -1.83,-0.65 0.41,-1.07 0.79,-2.16 1.14,-3.25 0.36,-1.1 0.72,-2.18 1.07,-3.25 0.36,0.15 0.92,0.36 1.68,0.61 0.76,0.26 1.68,0.5 2.75,0.73 1.07,0.23 2.28,0.42 3.63,0.57 1.35,0.15 2.79,0.23 4.32,0.23 1.99,0 3.77,-0.22 5.35,-0.65 1.58,-0.43 2.92,-1.19 4.01,-2.25 1.1,-1.07 1.93,-2.49 2.52,-4.25 0.59,-1.76 0.88,-3.96 0.88,-6.61 -1.02,1.48 -2.61,2.66 -4.78,3.55 -2.16,0.89 -4.55,1.34 -7.15,1.34 -2.45,0 -4.71,-0.34 -6.8,-1.03 -2.09,-0.69 -3.87,-1.68 -5.35,-2.98 -1.48,-1.3 -2.64,-2.92 -3.48,-4.85 -0.84,-1.94 -1.26,-4.15 -1.26,-6.65l0 -18.96zm96.54 -17.96c0,-1.38 0.39,-2.4 1.19,-3.06 0.79,-0.66 1.92,-0.99 3.4,-0.99 0.92,0 1.76,0.11 2.52,0.34 0.76,0.23 1.27,0.4 1.53,0.5l0 34.47c0,3.72 -0.52,6.96 -1.57,9.71 -1.04,2.75 -2.48,5.05 -4.32,6.88 -1.84,1.84 -4,3.21 -6.5,4.13 -2.5,0.92 -5.22,1.38 -8.18,1.38 -3,0 -5.77,-0.51 -8.29,-1.53 -2.52,-1.02 -4.7,-2.42 -6.54,-4.21 -1.83,-1.78 -3.28,-3.92 -4.32,-6.42 -1.04,-2.5 -1.57,-5.2 -1.57,-8.1 0,-2.95 0.5,-5.67 1.49,-8.14 1,-2.47 2.37,-4.61 4.13,-6.42 1.76,-1.81 3.82,-3.21 6.19,-4.21 2.37,-0.99 4.95,-1.49 7.76,-1.49 2.96,0 5.55,0.57 7.8,1.72 2.24,1.15 4,2.53 5.28,4.17l0 -18.73zm0 33.1c0,-1.73 -0.29,-3.36 -0.88,-4.89 -0.59,-1.53 -1.39,-2.85 -2.41,-3.98 -1.02,-1.12 -2.26,-2 -3.71,-2.64 -1.45,-0.64 -3.05,-0.96 -4.78,-0.96 -1.79,0 -3.39,0.32 -4.82,0.96 -1.43,0.64 -2.66,1.5 -3.71,2.6 -1.04,1.09 -1.85,2.41 -2.41,3.93 -0.56,1.53 -0.84,3.19 -0.84,4.97 0,1.79 0.28,3.43 0.84,4.93 0.56,1.5 1.36,2.8 2.41,3.9 1.04,1.1 2.28,1.96 3.71,2.6 1.43,0.64 3.03,0.96 4.82,0.96 1.73,0 3.32,-0.31 4.78,-0.92 1.45,-0.61 2.69,-1.45 3.71,-2.52 1.02,-1.07 1.82,-2.37 2.41,-3.9 0.59,-1.53 0.88,-3.21 0.88,-5.05zm15.75 -33.1c0,-1.38 0.41,-2.4 1.22,-3.06 0.82,-0.66 1.96,-0.99 3.44,-0.99 0.92,0 1.76,0.11 2.52,0.34 0.77,0.23 1.27,0.4 1.53,0.5l0 21.94c1.27,-1.63 3.03,-3.02 5.28,-4.17 2.24,-1.14 4.82,-1.72 7.72,-1.72 2.8,0 5.39,0.5 7.76,1.49 2.37,0.99 4.43,2.4 6.19,4.21 1.76,1.81 3.13,3.95 4.13,6.42 0.99,2.47 1.49,5.19 1.49,8.14 0,2.9 -0.51,5.61 -1.53,8.1 -1.02,2.5 -2.45,4.64 -4.28,6.42 -1.83,1.79 -4.01,3.19 -6.54,4.21 -2.52,1.02 -5.29,1.53 -8.29,1.53 -3.01,0 -5.77,-0.46 -8.3,-1.38 -2.52,-0.92 -4.7,-2.29 -6.54,-4.13 -1.83,-1.83 -3.26,-4.13 -4.28,-6.88 -1.02,-2.75 -1.53,-5.99 -1.53,-9.71l0 -31.26zm20.48 45.48c1.73,0 3.33,-0.32 4.78,-0.96 1.45,-0.64 2.7,-1.5 3.75,-2.6 1.04,-1.09 1.85,-2.39 2.41,-3.9 0.56,-1.5 0.84,-3.15 0.84,-4.93 0,-1.78 -0.28,-3.44 -0.84,-4.97 -0.56,-1.53 -1.36,-2.84 -2.41,-3.93 -1.04,-1.1 -2.29,-1.96 -3.75,-2.6 -1.45,-0.64 -3.05,-0.96 -4.78,-0.96 -1.78,0 -3.4,0.32 -4.85,0.96 -1.45,0.64 -2.69,1.52 -3.7,2.64 -1.02,1.12 -1.82,2.45 -2.41,3.98 -0.59,1.53 -0.88,3.16 -0.88,4.89 0,1.84 0.3,3.52 0.88,5.05 0.59,1.53 1.4,2.83 2.45,3.9 1.04,1.07 2.29,1.91 3.75,2.52 1.45,0.61 3.05,0.92 4.78,0.92z"/>
 </g>
</svg>
